<?xml version="1.0" standalone="no"?>
<!DOCTYPE svg PUBLIC "-//W3C//DTD SVG 20010904//EN"
 "http://www.w3.org/TR/2001/REC-SVG-20010904/DTD/svg10.dtd">
<svg version="1.0" xmlns="http://www.w3.org/2000/svg"
 width="511.539164pt" height="511.932433pt" viewBox="0 0 511.539164 511.932433"
 preserveAspectRatio="xMidYMid meet">
<metadata>
Created by potrace 1.12, written by Peter Selinger 2001-2015
</metadata>
<g transform="translate(0.062095,511.947969) scale(0.100000,-0.100000)"
fill="#FFFAFF" stroke="none">
<path d="M2200 5100 c-550 -81 -1026 -315 -1424 -701 -415 -402 -671 -903
-756 -1479 -25 -173 -28 -523 -4 -692 79 -579 321 -1065 734 -1478 217 -218
426 -368 685 -495 359 -175 709 -255 1121 -255 336 0 594 44 887 151 794 292
1408 977 1606 1790 58 239 66 317 66 624 0 308 -12 405 -75 647 -187 720 -695
1335 -1375 1663 -244 117 -501 193 -789 231 -158 20 -515 17 -676 -6z m777
-1224 c27 -23 28 -28 33 -143 l5 -118 220 -5 c202 -5 223 -7 261 -27 48 -26
90 -72 115 -128 15 -32 19 -66 19 -172 0 -124 -1 -134 -23 -159 -17 -19 -37
-29 -68 -33 l-44 -6 -5 -790 -5 -790 -23 -57 c-32 -80 -99 -150 -180 -190
l-67 -33 -634 -3 c-701 -3 -692 -4 -787 60 -56 38 -116 114 -141 178 -16 41
-18 112 -23 835 l-5 790 -44 6 c-31 4 -51 14 -68 33 -22 25 -23 35 -23 159 0
111 4 139 21 177 25 55 62 95 114 123 37 20 59 22 260 27 l220 5 5 118 c5 115
6 120 33 143 l28 24 389 0 389 0 28 -24z"/>
<path d="M2304 3706 c-3 -8 -4 -31 -2 -52 l3 -39 255 0 255 0 0 50 0 50 -253
3 c-210 2 -253 0 -258 -12z"/>
<path d="M1699 3400 c-26 -25 -30 -36 -27 -72 l3 -43 885 0 885 0 3 43 c3 36
-1 47 -27 72 l-29 30 -832 0 -832 0 -29 -30z"/>
<path d="M1827 3083 c-4 -3 -7 -352 -7 -775 0 -836 -3 -793 57 -850 62 -59 49
-58 685 -58 542 0 586 2 623 19 45 20 102 79 110 114 3 12 4 366 3 787 l-3
765 -731 3 c-402 1 -734 -1 -737 -5z m381 -220 l22 -24 0 -595 0 -595 -25 -24
c-40 -41 -121 -29 -144 22 -15 33 -16 1176 0 1204 14 27 67 49 99 42 14 -3 35
-16 48 -30z m387 23 c18 -8 38 -23 44 -34 8 -14 11 -207 11 -612 l0 -591 -25
-24 c-34 -35 -96 -35 -130 0 l-25 24 0 591 c0 404 3 598 11 611 6 12 25 27 42
34 40 18 32 17 72 1z m420 0 c18 -8 38 -23 44 -34 16 -29 15 -1172 0 -1205
-23 -51 -104 -63 -144 -22 l-25 24 0 594 c0 581 0 595 20 620 11 14 30 28 43
30 12 2 23 5 25 6 1 0 18 -5 37 -13z"/>
</g>
</svg>
