<?xml version="1.0" standalone="no"?>
<!DOCTYPE svg PUBLIC "-//W3C//DTD SVG 20010904//EN"
 "http://www.w3.org/TR/2001/REC-SVG-20010904/DTD/svg10.dtd">
<svg version="1.0" xmlns="http://www.w3.org/2000/svg"
 width="511.311922pt" height="511.019319pt" viewBox="0 0 511.311922 511.019319"
 preserveAspectRatio="xMidYMid meet">
<metadata>
Created by potrace 1.12, written by Peter Selinger 2001-2015
</metadata>
<g transform="translate(-0.153817,511.558459) scale(0.100000,-0.100000)"
fill="#F15025" stroke="none">
<path d="M2315 5109 c-800 -83 -1501 -518 -1927 -1196 -487 -774 -516 -1777
-75 -2578 200 -364 487 -676 841 -913 238 -159 600 -311 876 -366 214 -43 295
-51 530 -51 236 0 333 10 532 51 880 184 1615 842 1898 1702 92 278 125 491
125 802 0 301 -32 513 -116 775 -124 390 -330 728 -622 1024 -399 404 -893
653 -1462 737 -123 18 -478 26 -600 13z m400 -985 c167 -41 319 -164 402 -327
27 -55 63 -185 63 -231 0 -28 24 -7 303 271 337 336 336 335 420 294 81 -39
103 -133 48 -207 -52 -70 -2595 -2603 -2624 -2614 -62 -23 -126 -5 -166 46
-25 32 -28 101 -7 142 8 15 116 128 239 251 l225 223 -44 82 c-47 88 -96 226
-114 322 -10 50 -9 66 3 97 28 66 112 96 176 63 42 -22 51 -37 77 -142 13 -54
38 -129 56 -166 l33 -69 88 89 89 89 -21 86 c-21 83 -22 100 -19 659 3 554 4
575 24 628 65 170 157 280 304 363 129 72 285 90 445 51z m450 -1681 c-26
-112 -80 -208 -165 -294 -134 -136 -286 -196 -470 -186 -52 2 -103 8 -113 12
-16 7 47 74 370 397 l388 388 3 -125 c2 -86 -2 -145 -13 -192z m446 84 c52
-35 64 -83 43 -177 -48 -220 -152 -409 -310 -565 -157 -155 -352 -257 -596
-309 l-28 -6 0 -120 0 -120 180 0 c191 0 227 -7 264 -49 11 -12 21 -41 23 -68
6 -60 -25 -112 -77 -130 -45 -15 -967 -18 -1022 -3 -113 32 -121 191 -12 236
24 10 83 14 214 14 l180 0 0 115 c0 84 -3 117 -12 119 -7 2 -48 9 -91 15 -88
14 -217 55 -296 95 l-54 28 94 93 94 94 86 -30 c151 -51 362 -54 513 -8 299
90 523 331 600 641 28 113 28 114 70 139 42 26 95 24 137 -4z"/>
</g>
</svg>
